<?xml version="1.0" standalone="no"?>
<!DOCTYPE svg PUBLIC "-//W3C//DTD SVG 20010904//EN"
 "http://www.w3.org/TR/2001/REC-SVG-20010904/DTD/svg10.dtd">
<svg version="1.0" xmlns="http://www.w3.org/2000/svg"
 width="300.000000pt" height="300.000000pt" viewBox="0 0 300.000000 300.000000"
 preserveAspectRatio="xMidYMid meet">
<metadata>
Created by potrace 1.10, written by Peter Selinger 2001-2011
</metadata>
<g transform="translate(0.000000,300.000000) scale(0.100000,-0.100000)"
fill="#000000" stroke="none">
<path d="M923 2065 c-33 -23 -41 -66 -49 -249 -5 -125 -4 -167 5 -162 7 4 11
0 11 -12 0 -11 9 -31 21 -46 28 -36 89 -37 124 -1 20 19 25 34 25 75 0 49 -1
50 -29 50 -27 0 -30 -3 -33 -37 -2 -30 -7 -38 -23 -38 -19 0 -20 8 -23 160 -1
88 0 170 3 183 8 33 39 24 45 -13 4 -24 10 -30 30 -30 20 0 26 6 28 28 6 46
-19 86 -58 97 -46 13 -52 13 -77 -5z m-3 -387 c0 -34 -2 -59 -4 -57 -9 9 -13
119 -5 119 5 0 9 -28 9 -62z"/>
<path d="M1186 2062 c-3 -5 -7 -31 -10 -59 -2 -28 -9 -60 -15 -70 -5 -11 -21
-71 -36 -134 -14 -63 -32 -138 -39 -166 -7 -29 -11 -55 -8 -58 3 -3 17 -5 32
-5 24 0 28 5 36 48 l9 47 50 0 50 0 9 -47 c9 -48 10 -48 49 -48 36 0 39 2 32
23 -4 12 -11 46 -15 76 -5 29 -13 65 -19 80 -5 14 -16 58 -25 96 -50 232 -48
225 -72 225 -13 0 -25 -4 -28 -8z m-8 -202 c-3 -66 7 -80 18 -25 6 35 19 52
27 38 3 -5 8 -41 12 -80 l7 -73 -35 0 c-33 0 -35 2 -43 43 -4 23 -7 49 -5 57
1 8 2 34 1 58 0 23 4 42 10 42 6 0 9 -23 8 -60z"/>
<path d="M1375 2060 c-3 -5 -3 -39 1 -75 6 -57 8 -63 20 -48 12 16 13 16 14
-9 0 -20 -4 -26 -14 -22 -12 5 -15 -19 -18 -138 -2 -79 -1 -147 3 -151 3 -4
19 -9 35 -10 l29 -2 1 90 c0 71 3 90 15 90 11 0 15 -20 17 -87 l3 -88 34 0
c19 0 36 3 38 8 2 4 1 34 -3 67 -6 53 -7 56 -10 20 l-3 -40 -6 40 c-4 28 -2
41 7 43 17 5 15 57 -3 72 -11 9 -13 16 -5 24 15 15 13 191 -2 203 -18 14 -146
24 -153 13z m95 -125 c0 -51 -3 -65 -15 -65 -12 0 -15 14 -15 65 0 51 3 65 15
65 12 0 15 -14 15 -65z m-38 -96 c2 -7 12 -7 31 0 23 9 27 8 27 -8 0 -14 -6
-17 -25 -13 -15 2 -25 0 -25 -7 0 -6 -4 -11 -10 -11 -5 0 -10 7 -10 15 0 8 -4
15 -10 15 -5 0 -10 5 -10 10 0 13 27 13 32 -1z"/>
<path d="M1590 1819 l0 -249 65 0 c63 0 65 1 65 25 0 22 -4 25 -35 25 l-35 0
0 75 c0 43 -4 75 -10 75 -5 0 -10 6 -10 13 0 8 15 14 37 15 44 3 56 13 51 38
-2 12 -13 19 -32 21 -15 1 -30 3 -31 5 -3 3 -8 109 -6 136 1 19 41 15 41 -5 0
-14 3 -13 16 5 8 12 14 32 12 44 -3 18 -10 21 -65 24 l-63 2 0 -249z"/>
<path d="M1770 1820 l0 -250 64 0 c42 0 65 4 68 13 9 24 -4 37 -38 37 l-34 0
0 74 c0 50 -4 76 -12 79 -21 7 -1 20 39 26 32 5 38 10 41 34 3 23 0 28 -15 27
-53 -6 -54 -5 -51 72 2 60 6 73 21 76 11 2 17 -3 17 -14 0 -16 2 -15 16 4 8
12 14 32 12 43 -3 19 -11 22 -65 25 l-63 4 0 -250z"/>
<path d="M1949 2067 c-1 -1 -2 -104 -3 -229 -2 -212 0 -228 16 -230 56 -5 53
-9 53 87 0 73 3 90 15 90 12 0 16 -18 18 -87 l3 -88 34 0 c19 0 36 3 38 8 2 4
1 34 -3 67 -6 53 -7 56 -10 20 l-3 -40 -6 40 c-4 28 -2 41 7 43 17 5 15 57 -3
72 -11 9 -13 16 -5 24 15 15 13 191 -2 203 -11 9 -146 27 -149 20z m91 -132
c0 -51 -3 -65 -15 -65 -12 0 -15 14 -15 65 0 51 3 65 15 65 12 0 15 -14 15
-65z m18 -100 c1 -18 -2 -23 -13 -19 -9 4 -21 1 -28 -5 -10 -8 -18 -5 -31 10
-21 25 -13 38 13 22 17 -10 35 -5 56 17 0 0 2 -11 3 -25z"/>
<path d="M1110 1972 c0 -36 2 -41 14 -30 10 9 11 17 4 26 -8 9 -6 11 8 6 14
-4 16 -3 5 4 -7 5 -17 16 -22 23 -6 9 -9 -1 -9 -29z"/>
<path d="M867 1623 c-3 -5 -2 -23 2 -39 6 -22 10 -25 15 -13 8 18 -8 67 -17
52z"/>
<path d="M1162 1518 c-5 -7 -18 -55 -27 -105 -10 -51 -21 -93 -24 -93 -3 0
-20 33 -36 73 -23 53 -36 72 -49 72 -16 0 -23 -18 -42 -105 -13 -57 -20 -108
-15 -113 15 -15 39 22 46 73 8 56 20 72 30 38 8 -27 55 -98 64 -98 3 0 16 8
29 18 17 14 25 36 37 107 22 133 18 171 -13 133z"/>
<path d="M1268 1473 c-86 -92 -89 -223 -6 -223 19 0 41 9 54 21 l23 21 23 -26
c16 -18 27 -23 37 -17 12 7 10 15 -8 44 -16 26 -21 50 -21 100 0 36 -4 69 -10
72 -6 4 -10 -12 -10 -42 l0 -48 -19 24 c-10 13 -23 21 -30 17 -15 -10 -14 -25
4 -60 14 -26 14 -31 -1 -48 -18 -19 -49 -24 -58 -10 -10 16 28 113 56 144 15
18 28 38 28 45 0 22 -35 14 -62 -14z"/>
<path d="M724 1480 c-24 -9 -78 -69 -99 -111 -9 -16 -15 -47 -13 -67 2 -29 8
-38 29 -46 33 -11 79 0 79 19 0 11 -7 14 -25 9 -34 -8 -41 13 -20 62 21 51 53
84 82 84 16 0 23 6 23 20 0 24 -29 40 -56 30z"/>
<path d="M1660 1467 c-8 -10 -16 -28 -17 -40 -2 -12 -5 -39 -9 -59 -9 -53 2
-87 31 -98 32 -12 75 4 75 28 0 15 -6 17 -34 14 -19 -2 -37 1 -41 7 -11 18 15
41 45 41 27 0 56 21 44 33 -3 3 -21 3 -40 0 -72 -12 -24 40 54 58 51 12 70 28
35 30 -10 0 -43 1 -73 2 -42 2 -58 -2 -70 -16z"/>
<path d="M1890 1475 c-14 -8 -32 -14 -41 -15 -12 0 -21 -19 -33 -65 -22 -87
-21 -138 1 -133 9 2 20 17 25 35 5 18 12 34 17 37 4 3 32 -6 61 -20 29 -14 59
-24 68 -22 9 2 25 -5 34 -14 65 -65 180 5 164 100 -6 42 -51 92 -82 92 -47 0
-104 -70 -104 -130 l0 -30 -50 25 c-27 14 -50 27 -50 30 0 3 18 16 40 30 45
28 54 67 21 85 -26 13 -41 12 -71 -5z m50 -34 c0 -12 -54 -51 -69 -51 -17 0
17 48 37 53 28 8 32 7 32 -2z m199 -42 c12 -22 13 -31 1 -58 -15 -38 -41 -54
-75 -45 -38 10 -32 65 13 117 21 23 43 18 61 -14z"/>
<path d="M2300 1475 c-14 -8 -33 -14 -42 -15 -9 0 -19 -8 -22 -17 -15 -48 -34
-158 -29 -170 9 -24 33 -14 39 17 10 48 26 54 75 25 45 -25 89 -33 89 -15 0 5
-22 21 -50 35 -27 14 -50 27 -50 29 0 2 18 15 40 30 43 28 51 54 24 80 -19 20
-41 20 -74 1z m40 -45 c-6 -11 -15 -20 -19 -20 -5 0 -23 -14 -40 -32 -28 -29
-31 -30 -28 -11 4 26 60 83 82 83 13 0 14 -4 5 -20z"/>
<path d="M840 1462 c-40 -20 -80 -83 -80 -128 0 -58 63 -98 120 -74 59 24 87
99 59 152 -9 16 -57 68 -63 68 -1 0 -17 -8 -36 -18z m54 -54 c23 -32 20 -65
-9 -94 -42 -42 -96 -17 -82 38 8 32 45 78 62 78 8 0 21 -10 29 -22z"/>
<path d="M1452 1458 c-24 -30 -36 -104 -23 -147 32 -108 123 -65 177 83 24 66
23 76 -7 76 -23 0 -45 -41 -52 -99 -6 -50 -30 -82 -48 -64 -7 7 -12 41 -13 77
-1 69 -14 97 -34 74z"/>
</g>
</svg>
